<?xml version="1.0" standalone="no"?>
<!DOCTYPE svg PUBLIC "-//W3C//DTD SVG 20010904//EN"
 "http://www.w3.org/TR/2001/REC-SVG-20010904/DTD/svg10.dtd">
<svg version="1.0" xmlns="http://www.w3.org/2000/svg"
 width="2048.000000pt" height="2048.000000pt" viewBox="0 0 2048.000000 2048.000000"
 preserveAspectRatio="xMidYMid meet">

<g transform="translate(0.000000,2048.000000) scale(0.100000,-0.100000)"
fill="#000000" stroke="none">
<path d="M9995 13510 c-931 -74 -1649 -512 -2090 -1275 -415 -719 -679 -2028
-759 -3760 -7 -135 -21 -648 -36 -1315 -15 -599 -30 -783 -91 -1085 -51 -251
-42 -324 48 -386 81 -56 145 -73 268 -73 98 0 123 4 235 38 172 53 262 58 362
22 125 -45 199 -57 260 -40 29 7 54 14 55 14 1 0 18 -27 37 -59 44 -72 92
-116 166 -150 47 -22 69 -26 145 -25 104 0 171 16 439 105 l179 59 66 -38 c36
-20 84 -45 107 -55 40 -18 40 -19 51 -92 19 -131 88 -246 191 -317 95 -65 186
-68 217 -7 20 38 13 61 -30 97 -53 43 -77 110 -83 224 l-5 98 49 20 48 21 76
-35 c140 -66 212 -80 418 -80 l182 -1 0 -26 c0 -40 36 -134 69 -183 63 -92
189 -176 263 -176 28 0 46 7 64 26 35 34 26 68 -31 117 -55 47 -68 86 -69 212
l-1 100 95 33 95 33 135 -45 c203 -67 331 -91 480 -91 116 0 129 2 175 26 53
28 148 121 180 177 22 37 23 37 89 17 69 -21 132 -18 271 10 66 14 131 25 143
25 13 0 56 -15 95 -34 100 -47 225 -85 305 -92 75 -7 183 12 256 45 92 40 103
103 65 382 -50 375 -50 388 -59 1689 -5 679 -11 1271 -14 1315 -3 44 -10 172
-16 285 -45 883 -166 1715 -326 2252 -284 951 -747 1512 -1495 1809 -206 82
-454 144 -690 174 -153 19 -437 27 -584 15z m649 -120 c278 -42 552 -128 793
-250 517 -262 862 -668 1122 -1322 197 -496 334 -1210 405 -2118 47 -593 56
-917 56 -2040 0 -1152 6 -1305 66 -1718 14 -95 24 -189 22 -210 -3 -35 -6 -38
-63 -61 -48 -20 -78 -25 -150 -25 -99 1 -178 23 -323 90 -41 18 -87 34 -102
34 -15 0 -88 -12 -161 -26 -143 -27 -215 -27 -270 2 -25 12 -28 18 -19 34 6
10 15 22 20 25 6 3 10 10 10 15 0 26 -58 -24 -155 -131 -118 -131 -167 -167
-243 -176 -108 -12 -306 25 -517 98 -138 47 -145 47 -306 -5 -238 -77 -317
-91 -509 -90 -167 1 -270 21 -401 79 -44 19 -88 35 -97 35 -10 0 -58 -14 -107
-32 -73 -26 -106 -32 -171 -33 -79 0 -84 1 -197 59 -109 55 -120 59 -170 53
-29 -3 -120 -30 -202 -60 -83 -31 -184 -65 -225 -76 -177 -49 -310 -15 -395
100 -49 67 -149 179 -159 179 -3 0 0 -16 8 -35 l15 -34 -37 -11 c-62 -17 -101
-12 -226 31 -144 50 -180 49 -352 -5 -152 -47 -254 -61 -340 -47 -69 12 -150
48 -173 75 -16 19 -9 96 19 226 66 306 85 532 100 1245 31 1454 57 1908 156
2650 188 1420 476 2232 977 2752 433 450 960 685 1677 747 121 11 490 -4 624
-24z"/>
<path d="M9373 11246 c-104 -34 -176 -98 -222 -196 -23 -48 -26 -68 -26 -160
0 -96 2 -109 27 -150 39 -65 85 -110 137 -134 67 -30 223 -29 303 3 67 26 148
95 184 156 117 200 -49 478 -293 491 -41 2 -85 -2 -110 -10z"/>
<path d="M11715 11237 c-86 -29 -153 -85 -193 -161 -37 -74 -43 -198 -11 -281
46 -122 167 -205 301 -205 129 0 232 60 293 172 27 48 30 62 30 143 0 76 -4
99 -27 147 -32 70 -103 143 -166 170 -58 26 -171 33 -227 15z"/>
<path d="M11039 10668 c-11 -13 -35 -43 -52 -68 -40 -56 -98 -86 -198 -101
-156 -23 -290 21 -363 119 -30 40 -45 52 -65 52 -90 0 -52 -137 57 -210 79
-52 170 -75 297 -74 118 1 172 12 250 51 62 30 90 55 126 112 36 55 38 103 7
125 -29 21 -35 20 -59 -6z"/>
<path d="M12353 10548 c-32 -15 -29 -46 8 -84 23 -23 35 -49 43 -90 13 -63 34
-86 64 -68 23 15 28 96 8 148 -31 80 -78 115 -123 94z"/>
<path d="M12103 10513 c-22 -8 -14 -41 31 -131 49 -98 64 -115 98 -110 40 5
36 59 -8 132 -60 99 -87 123 -121 109z"/>
<path d="M9160 10496 c0 -58 24 -174 39 -189 23 -23 49 -13 53 21 5 45 -9 132
-26 158 -18 27 -66 34 -66 10z"/>
<path d="M8867 10463 c-4 -3 -7 -15 -7 -26 0 -23 68 -168 85 -179 22 -16 56
-8 67 16 9 21 7 32 -14 68 -14 24 -29 54 -33 68 -11 38 -35 60 -65 60 -15 0
-30 -3 -33 -7z"/>
<path d="M10836 9816 c-103 -30 -189 -112 -216 -204 -12 -43 -60 -349 -90
-575 -12 -87 -24 -167 -28 -178 -7 -18 -20 -11 -142 71 -74 49 -140 90 -147
90 -37 0 15 -99 84 -161 23 -21 93 -71 157 -113 71 -46 154 -112 212 -168 78
-76 102 -106 135 -174 100 -200 69 -381 -82 -483 -94 -63 -156 -76 -359 -76
-205 1 -275 16 -426 91 -51 25 -100 44 -110 42 -27 -5 -29 -40 -4 -71 68 -86
235 -150 452 -172 66 -6 67 -7 62 -33 -19 -110 -54 -369 -54 -407 0 -92 50
-164 134 -191 28 -9 62 -27 76 -40 35 -32 126 -72 193 -85 36 -6 267 -9 644
-7 661 4 639 2 727 79 73 64 90 114 137 384 43 250 49 265 96 265 12 0 67 14
120 31 215 68 373 182 373 269 0 29 -19 22 -125 -44 -46 -30 -114 -66 -151
-80 -62 -25 -245 -79 -250 -73 -1 1 6 52 16 112 10 61 44 272 75 470 31 198
59 370 62 382 3 12 15 25 26 29 37 11 113 71 140 112 27 38 37 102 16 102 -17
0 -49 -20 -106 -66 -59 -48 -68 -53 -58 -26 12 33 65 417 65 477 0 142 -137
297 -317 357 -43 15 -129 23 -396 38 -188 10 -378 21 -422 24 -224 15 -471 16
-519 2z m674 -111 c469 -24 588 -34 623 -49 l32 -15 -30 4 c-16 2 -106 7 -200
10 -93 3 -231 10 -305 15 -74 5 -237 14 -361 21 -224 12 -227 12 -296 -10 -87
-28 -160 -82 -190 -141 -14 -28 -30 -93 -43 -175 -31 -196 -28 -188 -64 -162
-17 13 -17 20 8 185 15 95 32 187 38 205 23 66 62 103 138 128 31 11 262 5
650 -16z m1 -134 c173 -11 411 -25 529 -31 270 -14 271 -14 304 -49 53 -56 53
-73 -5 -446 -16 -104 -41 -266 -55 -360 -24 -165 -84 -551 -124 -805 -11 -69
-33 -213 -50 -320 -61 -393 -70 -417 -158 -458 l-57 -27 -540 -3 c-582 -3
-662 1 -745 43 -71 36 -84 60 -76 143 8 77 51 362 67 440 l11 53 86 41 c104
50 183 124 226 213 26 52 31 74 34 161 7 167 -37 291 -147 419 -38 44 -60 79
-61 95 0 14 18 149 40 300 72 492 79 524 131 561 78 55 131 58 590 30z m-826
-507 c-3 -53 -19 -174 -25 -183 -13 -22 -51 5 -46 32 3 12 10 59 17 105 11 81
12 82 33 69 11 -8 21 -18 21 -23z m-55 -309 c20 -24 6 -28 -15 -5 -10 11 -13
20 -8 20 6 0 16 -7 23 -15z m-147 -1067 c-9 -89 -13 -97 -41 -79 -10 6 -12 22
-7 65 7 50 10 56 30 56 21 0 23 -4 18 -42z m-37 -206 c8 -5 8 -32 -2 -97 -7
-49 -13 -109 -13 -132 -1 -48 -12 -54 -35 -21 -22 31 -19 105 9 236 5 22 21
28 41 14z"/>
<path d="M11821 9434 c-54 -48 -71 -82 -71 -139 0 -57 21 -100 60 -120 31 -16
214 -34 346 -35 85 0 128 23 158 85 26 56 19 145 -15 181 -45 49 -80 57 -265
62 l-171 4 -42 -38z"/>
</g>
</svg>
